<svg width="40" height="40" viewBox="0 0 40 40" fill="none" xmlns="http://www.w3.org/2000/svg">
<g clip-path="url(#clip0_92_55)">
<path d="M25.2 15.5401V20.7601H30.4C30.8 20.7601 31 21.1201 31 21.4801L30.2 24.9001C30.2 25.0801 29.8 25.2601 29.6 25.2601H25.2V38.4001H19.2V25.4401H15.8C15.4 25.4401 15.2 25.2601 15.2 24.9001V21.4801C15.2 21.1201 15.4 20.9401 15.8 20.9401H19.2V15.0001C19.2 11.9401 21.8 9.6001 25.2 9.6001H30.6C31 9.6001 31.2 9.7801 31.2 10.1401V14.4601C31.2 14.8201 31 15.0001 30.6 15.0001H25.8C25.4 15.0001 25.2 15.1801 25.2 15.5401V15.5401Z" stroke="white" stroke-width="1.5" stroke-miterlimit="10" stroke-linecap="round"/>
<path d="M25.52 38.4H14.48C5.28001 38.4 1.60001 34.64 1.60001 25.24V13.96C1.60001 4.56005 5.28001 0.800049 14.48 0.800049H25.52C34.72 0.800049 38.4 4.56005 38.4 13.96V25.24C38.4 34.64 34.72 38.4 25.52 38.4Z" stroke="white" stroke-width="1.5" stroke-linecap="round" stroke-linejoin="round"/>
</g>
<defs>
<clipPath id="clip0_92_55">
<rect width="40" height="40" fill="white"/>
</clipPath>
</defs>
</svg>
