<svg width="40" height="40" viewBox="0 0 40 40" fill="none" xmlns="http://www.w3.org/2000/svg">
<g clip-path="url(#clip0_92_51)">
<path d="M14.24 39.2001H25.76C35.36 39.2001 39.2 35.3601 39.2 25.76V14.24C39.2 4.64005 35.36 0.800049 25.76 0.800049H14.24C4.64 0.800049 0.800003 4.64005 0.800003 14.24V25.76C0.800003 35.3601 4.64 39.2001 14.24 39.2001Z" stroke="white" stroke-width="1.5" stroke-linecap="round" stroke-linejoin="round"/>
<path d="M20 25.8332C20.766 25.8332 21.5246 25.6823 22.2323 25.3891C22.94 25.096 23.5831 24.6663 24.1248 24.1246C24.6665 23.583 25.0961 22.9399 25.3893 22.2322C25.6824 21.5244 25.8333 20.7659 25.8333 19.9998C25.8333 19.2338 25.6824 18.4753 25.3893 17.7675C25.0961 17.0598 24.6665 16.4167 24.1248 15.875C23.5831 15.3334 22.94 14.9037 22.2323 14.6105C21.5246 14.3174 20.766 14.1665 20 14.1665C18.4529 14.1665 16.9692 14.7811 15.8752 15.875C14.7812 16.969 14.1667 18.4527 14.1667 19.9998C14.1667 21.5469 14.7812 23.0307 15.8752 24.1246C16.9692 25.2186 18.4529 25.8332 20 25.8332V25.8332Z" stroke="white" stroke-width="1.5" stroke-linecap="round" stroke-linejoin="round"/>
<path d="M29.3933 12.4666H29.4133" stroke="white" stroke-width="2" stroke-linecap="round" stroke-linejoin="round"/>
</g>
<defs>
<clipPath id="clip0_92_51">
<rect width="40" height="40" fill="white"/>
</clipPath>
</defs>
</svg>
