<svg width="30" height="30" viewBox="0 0 30 30" fill="none" xmlns="http://www.w3.org/2000/svg">
<path d="M15 16.7875C15.5122 16.7875 16.0193 16.6867 16.4925 16.4907C16.9656 16.2947 17.3956 16.0074 17.7577 15.6453C18.1199 15.2831 18.4071 14.8532 18.6031 14.38C18.7991 13.9068 18.9 13.3997 18.9 12.8875C18.9 12.3754 18.7991 11.8683 18.6031 11.3951C18.4071 10.9219 18.1199 10.492 17.7577 10.1298C17.3956 9.76768 16.9656 9.48041 16.4925 9.28442C16.0193 9.08843 15.5122 8.98755 15 8.98755C13.9657 8.98755 12.9737 9.39844 12.2423 10.1298C11.5109 10.8612 11.1 11.8532 11.1 12.8875C11.1 13.9219 11.5109 14.9139 12.2423 15.6453C12.9737 16.3767 13.9657 16.7875 15 16.7875V16.7875Z" stroke="white" stroke-width="1.5"/>
<path d="M4.525 10.6125C6.9875 -0.212497 23.025 -0.199997 25.475 10.625C26.9125 16.975 22.9625 22.35 19.5 25.675C18.2901 26.8419 16.6747 27.494 14.9938 27.494C13.3128 27.494 11.6974 26.8419 10.4875 25.675C7.0375 22.35 3.0875 16.9625 4.525 10.6125V10.6125Z" stroke="white" stroke-width="1.5"/>
</svg>
