<svg width="25" height="25" viewBox="0 0 25 25" fill="none" xmlns="http://www.w3.org/2000/svg">
<path d="M18.7604 9.36458L15.6354 6.23958M3.64584 21.3542C4.51043 22.2188 5.90626 22.2188 6.77084 21.3542L20.3125 7.8125C21.1771 6.94792 21.1771 5.55208 20.3125 4.6875C19.4479 3.82292 18.0521 3.82292 17.1875 4.6875L3.64584 18.2292C2.78126 19.0938 2.78126 20.4896 3.64584 21.3542Z" stroke="#343D5E" stroke-width="1.5" stroke-linecap="round" stroke-linejoin="round"/>
<path d="M8.85417 2.54159L10.4167 2.08325L9.95833 3.64575L10.4167 5.20825L8.85417 4.74992L7.29167 5.20825L7.75 3.64575L7.29167 2.08325L8.85417 2.54159ZM4.6875 8.79158L6.25 8.33325L5.79167 9.89575L6.25 11.4583L4.6875 10.9999L3.125 11.4583L3.58333 9.89575L3.125 8.33325L4.6875 8.79158ZM20.3125 13.9999L21.875 13.5416L21.4167 15.1041L21.875 16.6666L20.3125 16.2083L18.75 16.6666L19.2083 15.1041L18.75 13.5416L20.3125 13.9999Z" stroke="#343D5E" stroke-linecap="round" stroke-linejoin="round"/>
</svg>
