<svg width="77" height="77" viewBox="0 0 77 77" fill="none" xmlns="http://www.w3.org/2000/svg">
<path d="M1 24.7H75.9064V8.5C75.9064 4.375 71.6929 1 66.5431 1H10.3633C5.21348 1 1 4.375 1 8.5V24.7ZM1 24.7V38.05C1 42.1 3.71536 45.85 8.16292 47.8375L22.0206 54.1C24.97 55.4125 26.7959 57.925 26.7959 60.625V68.5C26.7959 72.625 31.0094 76 36.1592 76H40.8408C45.9906 76 50.2041 72.625 50.2041 68.5V60.625C50.2041 57.925 52.03 55.4125 54.9794 54.1L68.8371 47.8375C73.2378 45.85 76 42.1 76 38.05V24.7H1Z" stroke="#343D5E" stroke-width="1.5" stroke-linecap="round" stroke-linejoin="round"/>
</svg>
